<?xml version="1.0" encoding="utf-8"?>
<!-- Generator: Adobe Illustrator 28.0.0, SVG Export Plug-In . SVG Version: 6.00 Build 0)  -->
<svg version="1.1" xmlns="http://www.w3.org/2000/svg" xmlns:xlink="http://www.w3.org/1999/xlink" x="0px" y="0px"
	 viewBox="0 0 500 150" style="enable-background:new 0 0 500 150;" xml:space="preserve">
<style type="text/css">
	.st0{fill:none;}
	.st1{fill:#FFFFFF;}
</style>
<g id="Layer_2">
</g>
<g id="Layer_1">
	<line class="st0" x1="248.7" y1="-58.7" x2="249.1" y2="223.2"/>
	<g>
		<g>
			<polygon class="st1" points="84.1,39.6 84.1,40 62,118.3 61.9,118.7 61.9,128.8 0,113.2 0,36.3 62,21.2 61.9,35.5 			"/>
			<polygon class="st1" points="108.3,83.2 108.3,117.3 94.9,120.7 94.9,108 75.9,111.5 75.9,111 95,39.3 95,28.8 97.4,29.4 			"/>
			<path class="st1" d="M118,34.6l-3,18.8c-0.9,6-1.9,12-2.6,18.2l-0.1,0c-0.8-6.3-1.8-12.8-2.8-18.5l-3.6-21.5L118,34.6z"/>
			<polygon class="st1" points="124.6,36.3 124.6,113.1 115.4,115.5 115.4,82.3 			"/>
		</g>
		<g>
			<path class="st1" d="M139.5,40.5h6.4v3.7h0.4c1.3-2.6,3.8-4.1,7.2-4.1c6,0,9.8,4.7,9.8,12.5v0c0,7.8-3.7,12.4-9.8,12.4
				c-3.3,0-6-1.6-7.2-4.2h-0.4v11.9h-6.4V40.5z M156.9,52.6L156.9,52.6c0-4.5-2.1-7.2-5.5-7.2c-3.4,0-5.5,2.7-5.5,7.1v0
				c0,4.4,2.2,7.1,5.5,7.1C154.8,59.7,156.9,57,156.9,52.6z"/>
			<path class="st1" d="M168.6,40.5h6.4v3.8h0.4c0.8-2.6,3-4.2,6.1-4.2c0.9,0,1.8,0.1,2.4,0.3V46c-1-0.2-2-0.4-2.9-0.4
				c-3.6,0-6,2.1-6,5.5v13.5h-6.4V40.5z"/>
			<path class="st1" d="M186.5,52.6L186.5,52.6c0-7.8,4.5-12.6,11.9-12.6c7.4,0,11.9,4.8,11.9,12.6v0c0,7.9-4.5,12.6-11.9,12.6
				C190.9,65.2,186.5,60.4,186.5,52.6z M203.7,52.6L203.7,52.6c0-4.8-2-7.6-5.4-7.6c-3.4,0-5.4,2.8-5.4,7.6v0c0,4.8,1.9,7.6,5.4,7.6
				C201.8,60.1,203.7,57.3,203.7,52.6z"/>
			<path class="st1" d="M215.1,66.2v-0.1h6.3l0,0.1c0.4,1.4,2,2.4,4.9,2.4c3.4,0,5.4-1.6,5.4-4.4v-4.5h-0.4
				c-1.3,2.5-3.9,3.9-7.2,3.9c-6.1,0-9.8-4.7-9.8-11.6v0c0-7.1,3.8-11.9,9.9-11.9c3.3,0,5.9,1.6,7.2,4.3h0.3v-4h6.4v23.4
				c0,5.7-4.6,9.2-11.9,9.2C219.5,73.2,215.6,70.3,215.1,66.2z M231.8,52L231.8,52c0-4-2.1-6.7-5.5-6.7c-3.4,0-5.4,2.7-5.4,6.7v0
				c0,4,2,6.7,5.4,6.7C229.7,58.7,231.8,56,231.8,52z"/>
			<path class="st1" d="M244.5,40.5h6.4v3.8h0.4c0.8-2.6,3-4.2,6.1-4.2c0.9,0,1.8,0.1,2.4,0.3V46c-1-0.2-2-0.4-2.9-0.4
				c-3.6,0-6,2.1-6,5.5v13.5h-6.4V40.5z"/>
			<path class="st1" d="M262.3,57.8L262.3,57.8c0-4.4,3.4-6.9,9.4-7.3l5.8-0.4v-2c0-2.1-1.4-3.3-4.1-3.3c-2.3,0-3.8,0.8-4.3,2.2
				l0,0.1h-5.9l0-0.2c0.5-4.2,4.5-7,10.6-7c6.4,0,10,3,10,8.2v16.5h-6.3v-3.2h-0.4c-1.2,2.2-3.8,3.6-6.9,3.6
				C265.6,65,262.3,62.2,262.3,57.8z M272.4,60.4c3,0,5.2-2,5.2-4.5v-1.8l-4.9,0.3c-2.7,0.2-4.1,1.2-4.1,3v0
				C268.6,59.2,270.2,60.4,272.4,60.4z"/>
			<path class="st1" d="M290.2,40.5h6.4v3.8h0.4c1-2.7,3.5-4.3,6.7-4.3c3.3,0,5.7,1.7,6.7,4.5h0.4c1.1-2.7,3.9-4.5,7.3-4.5
				c4.8,0,7.8,3.1,7.8,8.1v16.6h-6.4v-15c0-2.9-1.3-4.4-4-4.4c-2.6,0-4.3,1.9-4.3,4.5v14.9h-6.4V49.4c0-2.6-1.5-4.1-4-4.1
				s-4.3,2-4.3,4.8v14.6h-6.4V40.5z"/>
			<path class="st1" d="M332.1,40.5h6.4v3.8h0.4c1-2.7,3.5-4.3,6.7-4.3c3.3,0,5.7,1.7,6.7,4.5h0.4c1.1-2.7,3.9-4.5,7.3-4.5
				c4.8,0,7.8,3.1,7.8,8.1v16.6h-6.4v-15c0-2.9-1.3-4.4-4-4.4c-2.6,0-4.3,1.9-4.3,4.5v14.9h-6.4V49.4c0-2.6-1.5-4.1-4-4.1
				s-4.3,2-4.3,4.8v14.6h-6.4V40.5z"/>
			<path class="st1" d="M373.6,33.2c0-2,1.6-3.6,3.6-3.6c2,0,3.6,1.6,3.6,3.6c0,2-1.6,3.6-3.6,3.6C375.3,36.8,373.6,35.2,373.6,33.2
				z M374,40.5h6.4v24.2H374V40.5z"/>
			<path class="st1" d="M386.9,40.5h6.4v3.7h0.4c1.1-2.6,3.5-4.3,6.9-4.3c5.4,0,8.3,3.3,8.3,9.1v15.6h-6.4V50.5
				c0-3.4-1.4-5.2-4.4-5.2c-3,0-4.8,2.1-4.8,5.4v14h-6.4V40.5z"/>
			<path class="st1" d="M414.7,66.2v-0.1h6.3l0,0.1c0.4,1.4,2,2.4,4.9,2.4c3.4,0,5.4-1.6,5.4-4.4v-4.5h-0.4
				c-1.3,2.5-3.9,3.9-7.2,3.9c-6.1,0-9.8-4.7-9.8-11.6v0c0-7.1,3.8-11.9,9.9-11.9c3.3,0,5.9,1.6,7.2,4.3h0.3v-4h6.4v23.4
				c0,5.7-4.6,9.2-11.9,9.2C419.1,73.2,415.2,70.3,414.7,66.2z M431.4,52L431.4,52c0-4-2.1-6.7-5.5-6.7s-5.4,2.7-5.4,6.7v0
				c0,4,2,6.7,5.4,6.7C429.3,58.7,431.4,56,431.4,52z"/>
			<path class="st1" d="M139.8,76.2h6.4v33.4h-6.4V76.2z"/>
			<path class="st1" d="M151.5,102.8L151.5,102.8c0-4.4,3.4-6.9,9.4-7.3l5.8-0.4v-2c0-2.1-1.4-3.3-4.1-3.3c-2.3,0-3.8,0.8-4.3,2.2
				l0,0.1h-5.9l0-0.2c0.5-4.2,4.5-7,10.6-7c6.4,0,10,3,10,8.2v16.5h-6.3v-3.2h-0.4c-1.2,2.2-3.8,3.6-6.9,3.6
				C154.8,110,151.5,107.1,151.5,102.8z M161.5,105.3c3,0,5.2-2,5.2-4.5V99l-4.9,0.3c-2.7,0.2-4.1,1.2-4.1,3v0
				C157.8,104.2,159.3,105.3,161.5,105.3z"/>
			<path class="st1" d="M179.3,85.4h6.4v3.7h0.4c1.1-2.6,3.5-4.3,6.9-4.3c5.4,0,8.3,3.3,8.3,9.1v15.6h-6.4V95.4
				c0-3.4-1.4-5.2-4.4-5.2c-3,0-4.8,2.1-4.8,5.4v14h-6.4V85.4z"/>
			<path class="st1" d="M207.1,111.2v-0.1h6.3l0,0.1c0.4,1.4,2,2.4,4.9,2.4c3.4,0,5.4-1.6,5.4-4.4v-4.5h-0.4
				c-1.3,2.5-3.9,3.9-7.2,3.9c-6.1,0-9.8-4.7-9.8-11.6v0c0-7.1,3.8-11.9,9.9-11.9c3.3,0,5.9,1.6,7.2,4.3h0.3v-4h6.4v23.4
				c0,5.7-4.6,9.2-11.9,9.2C211.5,118.1,207.6,115.3,207.1,111.2z M223.8,97L223.8,97c0-4-2.1-6.7-5.5-6.7s-5.4,2.7-5.4,6.7v0
				c0,4,2,6.7,5.4,6.7C221.8,103.7,223.8,101,223.8,97z"/>
			<path class="st1" d="M236.3,101.1V85.4h6.4v14.2c0,3.4,1.3,5.2,4.3,5.2c3.2,0,4.9-2.1,4.9-5.4v-14h6.4v24.2h-6.4v-3.7h-0.4
				c-1.1,2.6-3.6,4.2-7,4.2C239.1,110.1,236.3,106.8,236.3,101.1z"/>
			<path class="st1" d="M263.5,102.8L263.5,102.8c0-4.4,3.4-6.9,9.4-7.3l5.8-0.4v-2c0-2.1-1.4-3.3-4.1-3.3c-2.3,0-3.8,0.8-4.3,2.2
				l0,0.1h-5.9l0-0.2c0.5-4.2,4.5-7,10.6-7c6.4,0,10,3,10,8.2v16.5h-6.3v-3.2h-0.4c-1.2,2.2-3.8,3.6-6.9,3.6
				C266.7,110,263.5,107.1,263.5,102.8z M273.5,105.3c3,0,5.2-2,5.2-4.5V99l-4.9,0.3c-2.7,0.2-4.1,1.2-4.1,3v0
				C269.7,104.2,271.3,105.3,273.5,105.3z"/>
			<path class="st1" d="M290.8,111.2v-0.1h6.3l0,0.1c0.4,1.4,2,2.4,4.9,2.4c3.4,0,5.4-1.6,5.4-4.4v-4.5h-0.4
				c-1.3,2.5-3.9,3.9-7.2,3.9c-6.1,0-9.8-4.7-9.8-11.6v0c0-7.1,3.8-11.9,9.9-11.9c3.3,0,5.9,1.6,7.2,4.3h0.3v-4h6.4v23.4
				c0,5.7-4.6,9.2-11.9,9.2C295.3,118.1,291.4,115.3,290.8,111.2z M307.6,97L307.6,97c0-4-2.1-6.7-5.5-6.7s-5.4,2.7-5.4,6.7v0
				c0,4,2,6.7,5.4,6.7C305.5,103.7,307.6,101,307.6,97z"/>
			<path class="st1" d="M319.1,97.6L319.1,97.6c0-7.7,4.5-12.6,11.5-12.6c7,0,11.4,4.8,11.4,12.1v2h-16.6c0.1,4,2.2,6.3,5.6,6.3
				c2.8,0,4.4-1.5,4.8-2.4l0.1-0.1h6l0,0.2c-0.7,3-3.9,7.1-10.9,7.1C323.6,110.1,319.1,105.3,319.1,97.6z M325.5,95H336
				c-0.4-3.5-2.4-5.3-5.2-5.3C328,89.7,325.9,91.6,325.5,95z"/>
		</g>
	</g>
</g>
</svg>
